<svg width="1801" height="1401" viewBox="0 0 1801 1401" xmlns="http://www.w3.org/2000/svg">
  <title>bg_editor_1</title>
  <defs>
    <linearGradient x1="50%" y1="0%" x2="50%" y2="100%" id="a">
      <stop stop-opacity="0" offset="0%"/>
      <stop stop-opacity=".1" offset="50%"/>
      <stop stop-opacity=".1" offset="75%"/>
      <stop stop-opacity=".1" offset="100%"/>
    </linearGradient>
  </defs>
  <g fill="none" fill-rule="evenodd">
    <path d="M151 .08v805.434L0 1011.967v388.113h400.558L651 805.514V.08H151z" fill="#e2f8a1"/>
    <path d="M1151 .08v805.434l249.558 594.566H1801v-388.113l-150-206.453V.08h-500z" fill="#8c8cdb"/>
    <path d="M651 .08v805.434L400.56 1400.08h1000L1151 805.514V.08H651z" fill="#fafbfc"/>
    <path d="M.558.002L.404 1011.966l150.154-206.452V.002h-150zm1650 0v805.512l150.154 206.452L1800.558.002h-150z" fill="#ffffff"/>
    <path d="M.558 805.514h1800V605.36H.558v200.154z" fill="url(#a)"/>
  </g>
</svg>
